HIERARCHY
ROOT Hips
{
	OFFSET -0.001795 -0.223333 0.028219
	CHANNELS 6 Xposition Yposition Zposition Zrotation Yrotation Xrotation 
	JOINT LeftUpLeg
	{
		OFFSET 0.069520 -0.091406 -0.006815
		CHANNELS 3 Zrotation Yrotation Xrotation
		JOINT LeftLeg
		{
			OFFSET 0.034277 -0.375199 -0.004496
			CHANNELS 3 Zrotation Yrotation Xrotation
			JOINT LeftFoot
			{
				OFFSET -0.013596 -0.397961 -0.043693
				CHANNELS 3 Zrotation Yrotation Xrotation
				JOINT LeftToe
				{
					OFFSET 0.026358 -0.055791 0.119288
					CHANNELS 3 Zrotation Yrotation Xrotation
					End Site
					{
						OFFSET 0.000000 0.000000 0.000000
					}
				}
			}
		}
	}
	JOINT RightUpLeg
	{
		OFFSET -0.067670 -0.090522 -0.004320
		CHANNELS 3 Zrotation Yrotation Xrotation
		JOINT RightLeg
		{
			OFFSET -0.038290 -0.382569 -0.008850
			CHANNELS 3 Zrotation Yrotation Xrotation
			JOINT RightFoot
			{
				OFFSET 0.015774 -0.398415 -0.042312
				CHANNELS 3 Zrotation Yrotation Xrotation
				JOINT RightToe
				{
					OFFSET -0.025372 -0.048144 0.123348
					CHANNELS 3 Zrotation Yrotation Xrotation
					End Site
					{
						OFFSET 0.000000 0.000000 0.000000
					}
				}
			}
		}
	}
	JOINT Spine
	{
		OFFSET -0.002533 0.108963 -0.026696
		CHANNELS 3 Zrotation Yrotation Xrotation
		JOINT Spine1
		{
			OFFSET 0.005487 0.135180 0.001092
			CHANNELS 3 Zrotation Yrotation Xrotation
			JOINT Spine2
			{
				OFFSET 0.001457 0.052922 0.025425
				CHANNELS 3 Zrotation Yrotation Xrotation
				JOINT Neck
				{
					OFFSET -0.002778 0.213870 -0.042857
					CHANNELS 3 Zrotation Yrotation Xrotation
					JOINT Head
					{
						OFFSET 0.005152 0.064970 0.051349
						CHANNELS 3 Zrotation Yrotation Xrotation
						End Site
						{
							OFFSET 0.000000 0.000000 0.000000
						}
					}
				}
				JOINT LeftShoulder
				{
					OFFSET 0.078845 0.121749 -0.034090
					CHANNELS 3 Zrotation Yrotation Xrotation
					JOINT LeftArm
					{
						OFFSET 0.090977 0.030469 -0.008868
						CHANNELS 3 Zrotation Yrotation Xrotation
						JOINT LeftForeArm
						{
							OFFSET 0.259612 -0.012772 -0.027456
							CHANNELS 3 Zrotation Yrotation Xrotation
							JOINT LeftHand
							{
								OFFSET 0.249234 0.008986 -0.001171
								CHANNELS 3 Zrotation Yrotation Xrotation
								End Site
								{
									OFFSET 0.000000 0.000000 0.000000
								}
							}
						}
					}
				}
				JOINT RightShoulder
				{
					OFFSET -0.081759 0.118833 -0.038615
					CHANNELS 3 Zrotation Yrotation Xrotation
					JOINT RightArm
					{
						OFFSET -0.096012 0.032551 -0.009143
						CHANNELS 3 Zrotation Yrotation Xrotation
						JOINT RightForeArm
						{
							OFFSET -0.253742 -0.013329 -0.021401
							CHANNELS 3 Zrotation Yrotation Xrotation
							JOINT RightHand
							{
								OFFSET -0.255298 0.007772 -0.005559
								CHANNELS 3 Zrotation Yrotation Xrotation
								End Site
								{
									OFFSET 0.000000 0.000000 0.000000
								}
							}
						}
					}
				}
			}
		}
	}
}
MOTION
Frames: 5
Frame Time: 0.050000
0.400458 0.902044 0.101944 171.882196 -76.806108 -179.804445 16.926429 11.403115 -7.451584 -4.947664 10.703874 18.082943 -61.549141 -10.972104 43.963978 0.000000 0.000000 0.000000 -11.410618 4.115143 -9.274049 14.214123 14.325199 -18.140721 98.310835 27.305442 114.886643 0.000000 0.000000 0.000000 3.847016 5.033850 25.741704 36.920353 4.783732 22.228850 -24.164817 -30.234046 8.939562 11.441505 -1.318948 16.813757 0.000000 0.000000 0.000000 -38.226234 -33.216934 46.136338 2.742318 -43.105776 -6.280627 44.470585 -21.498776 -10.207694 0.000000 0.000000 0.000000 42.991949 43.220285 -3.861294 21.442084 1.579306 4.589296 -7.701869 40.246521 -2.754806 0.000000 0.000000 0.000000 
0.400341 0.907141 0.095600 173.469341 -74.674187 177.182629 17.322283 11.250915 -4.581293 -4.157875 9.938290 16.861377 -60.353804 -9.942409 42.367890 0.000000 0.000000 0.000000 -9.816656 3.728301 -6.620191 13.596383 15.645570 -19.767317 94.904146 25.238590 114.670121 0.000000 0.000000 0.000000 3.085239 3.849272 22.486639 36.032739 6.349373 22.491516 -24.084617 -29.881328 10.508449 12.464152 -1.747000 15.303615 0.000000 0.000000 0.000000 -37.804447 -32.036789 46.842101 0.861235 -43.697166 -6.218286 43.270899 -22.995826 -10.735610 0.000000 0.000000 0.000000 42.225924 40.880396 -10.182261 22.416668 -3.788377 4.388120 -2.219667 41.016172 -1.039972 0.000000 0.000000 0.000000 
0.399004 0.912147 0.090754 172.802409 -72.908180 176.625740 16.996721 10.741691 -2.308797 -2.064493 10.018493 18.311377 -59.918530 -13.303860 37.360355 0.000000 0.000000 0.000000 -9.811299 4.067233 -4.188184 13.574937 17.482285 -21.700732 90.403688 23.691238 112.777546 0.000000 0.000000 0.000000 2.511266 2.762821 19.247204 33.062931 7.295538 21.068235 -22.691800 -28.077153 12.101165 12.677097 -1.583844 13.433173 0.000000 0.000000 0.000000 -37.599662 -30.654047 47.862890 -0.954540 -44.791571 -6.368452 41.191461 -25.571260 -11.551261 0.000000 0.000000 0.000000 40.829040 38.519760 -16.689949 23.237294 -9.637688 4.000839 3.402671 40.760592 0.768401 0.000000 0.000000 0.000000 
0.397344 0.917888 0.087507 173.611050 -70.846300 174.936352 16.935005 10.729756 -0.621470 0.455513 10.877555 21.011999 -58.576310 -16.714616 32.302441 0.000000 0.000000 0.000000 -8.815534 4.274710 -1.262099 11.989031 19.573349 -24.960352 86.276099 22.188072 111.091506 0.000000 0.000000 0.000000 2.243959 1.673464 15.790230 30.352564 8.477623 20.490645 -20.832208 -25.965822 13.957239 12.425844 -2.327712 8.711301 0.000000 0.000000 0.000000 -35.842691 -29.872100 47.958143 -3.381417 -46.626042 -6.045381 38.677442 -26.806962 -11.390101 0.000000 0.000000 0.000000 38.112129 36.543731 -21.448269 24.909882 -13.363259 3.749808 5.043894 39.985502 0.675560 0.000000 0.000000 0.000000 
0.395959 0.922568 0.086686 173.105981 -68.706465 174.574563 16.520275 10.504711 1.034061 3.108401 12.546128 24.567094 -57.534416 -20.721741 27.194870 0.000000 0.000000 0.000000 -8.920003 4.926808 0.659979 11.428421 21.365096 -26.968640 82.636553 20.972182 109.530271 0.000000 0.000000 0.000000 1.925058 1.066282 13.265665 27.110668 8.983105 18.874360 -18.822996 -22.834693 14.574494 12.645842 -3.194485 5.015878 0.000000 0.000000 0.000000 -35.138127 -28.440129 47.900553 -6.657566 -47.659313 -5.445863 35.103506 -28.922908 -11.210436 0.000000 0.000000 0.000000 35.746690 33.847142 -25.012577 26.902032 -15.793119 3.239507 7.070237 36.861718 0.779111 0.000000 0.000000 0.000000 
